<svg width="22" height="19" viewBox="0 0 22 19" fill="none" xmlns="http://www.w3.org/2000/svg">
<path d="M4.45165 5.44201C5.99449 6.58006 7.80804 7.30426 9.71894 7.53899C9.876 7.55834 10.0354 7.54015 10.1841 7.48589C10.3327 7.43164 10.4664 7.34287 10.5741 7.2269C10.6817 7.11093 10.7604 6.97106 10.8035 6.81879C10.8465 6.66651 10.8529 6.50619 10.8219 6.35099L10.3316 6.44874M4.45165 5.44201L13.8499 2.15799H13.8491C13.8491 2.15799 13.849 2.15799 13.8489 2.15799C13.3181 2.1578 12.7939 2.27544 12.3141 2.50243C11.8343 2.72945 11.4108 3.06018 11.0743 3.47075C10.7377 3.88131 10.4966 4.36147 10.3681 4.87657C10.2398 5.39147 10.2273 5.92844 10.3316 6.44874M4.45165 5.44201C4.41376 5.27948 4.39214 5.12188 4.38428 4.96928L3.88494 4.99499L3.56276 5.37735C3.70995 5.50138 3.85994 5.62153 4.01257 5.73775M4.45165 5.44201L4.01257 5.73775M10.3316 6.44874C10.3471 6.52634 10.3439 6.60651 10.3223 6.68264C10.3008 6.75878 10.2615 6.82871 10.2077 6.8867C10.1538 6.94469 10.087 6.98907 10.0127 7.01619C9.93833 7.04332 9.85862 7.05242 9.78009 7.04274L9.7799 7.04272C7.72591 6.79041 5.78966 5.94608 4.20712 4.61263L3.32637 3.87051L3.3856 5.0207C3.42186 5.72489 3.66641 6.4515 4.16373 7.18705L4.16376 7.1871L4.50299 7.6887M10.3316 6.44874L4.50299 7.6887M4.50299 7.6887L3.94598 7.92599L3.94524 7.92631L3.73024 8.01831L3.09757 8.28903L3.55052 8.8071C3.72916 9.01142 3.93882 9.21495 4.16782 9.412L4.16881 9.41285C4.47371 9.67382 4.79626 9.91343 5.13416 10.13L5.1355 10.1308L5.1465 10.1378L5.14644 10.1379L5.15574 10.1436L5.93002 10.6129L5.12033 11.0178C5.05226 11.0518 4.9849 11.0821 4.91824 11.1088L4.13833 11.4207L4.78439 11.9576C5.16522 12.274 5.58475 12.5407 6.03288 12.7513C6.03303 12.7514 6.03317 12.7515 6.03332 12.7515L6.72721 13.0795L6.14537 13.5814L6.14527 13.5815C5.54578 14.0988 4.97369 14.4587 4.24287 14.6491L3.00335 14.9721L4.13388 15.5743C5.47783 16.2902 6.97775 16.6631 8.50046 16.66M4.50299 7.6887L13.8499 2.15799C14.5283 2.15791 15.1928 2.35023 15.7662 2.71264C16.3396 3.07506 16.7985 3.5927 17.0896 4.20547L17.2254 4.48999H19.0699H19.8546L19.5231 5.20119C19.1586 5.98343 18.6387 6.68952 17.8882 7.21624C17.8882 7.21625 17.8882 7.21625 17.8882 7.21626L17.6759 7.36557V7.62599C17.6759 12.6076 13.5756 16.6597 8.50046 16.66M4.50299 7.6887L4.97159 7.48907L4.57794 6.90699C4.30677 6.50592 4.12303 6.1156 4.01257 5.73775M4.50299 7.6887L4.01257 5.73775M8.50046 16.66C8.50029 16.66 8.50011 16.66 8.49994 16.66V16.16L8.50099 16.66C8.50081 16.66 8.50064 16.66 8.50046 16.66ZM3.24298 9.94625L2.94557 10.2869C2.89838 10.3409 2.86338 10.4044 2.84293 10.4732C2.82251 10.5419 2.81709 10.6142 2.82704 10.6851L3.24298 9.94625ZM3.24298 9.94625L2.93388 9.61621M3.24298 9.94625L2.93388 9.61621M2.93388 9.61621C2.53126 9.1863 2.17184 8.67914 2.01685 8.13616C1.98373 8.01917 1.99437 7.89411 2.04679 7.7844C2.09926 7.67459 2.18998 7.58768 2.30194 7.53997L2.30242 7.53977L2.53642 7.43977L2.99961 7.24182L2.79825 6.78011C2.1843 5.37239 2.28814 3.99725 2.84046 2.79234L2.84067 2.79188C2.87569 2.71528 2.92949 2.64876 2.99709 2.59851C3.06468 2.54826 3.14387 2.51589 3.22731 2.50442C3.31075 2.49295 3.39574 2.50274 3.47438 2.53289C3.55297 2.56302 3.62268 2.61249 3.67705 2.67673C4.97201 4.21138 6.71073 5.30701 8.65398 5.81287L9.22974 5.96275L9.27827 5.36978C9.35645 4.41449 9.73198 3.50771 10.3521 2.77685C10.9722 2.04599 11.8057 1.5278 12.7355 1.29507C13.6653 1.06235 14.6446 1.1268 15.5359 1.47937C16.4272 1.83194 17.1856 2.4549 17.7046 3.26072L17.8522 3.48999H18.1249H20.4779H20.4782C20.5547 3.48995 20.6301 3.50745 20.6988 3.54113C20.7674 3.57482 20.8274 3.6238 20.8741 3.68431C20.9209 3.74482 20.9531 3.81525 20.9684 3.89017C20.9837 3.96509 20.9816 4.04252 20.9622 4.11649L20.9622 4.11669C20.6281 5.39633 20.0216 6.75228 18.8414 7.74305L18.6738 7.88376L18.6635 8.10235C18.4114 13.4283 13.9504 17.66 8.49894 17.66L8.49781 17.66C7.13353 17.6631 5.78246 17.3929 4.52431 16.8653C3.26627 16.3378 2.12663 15.5637 1.17261 14.5886M2.93388 9.61621L8.49894 18.16M8.49894 18.16C7.06789 18.1632 5.65069 17.8798 4.33096 17.3264C3.01123 16.773 1.81571 15.9609 0.814938 14.938M8.49894 18.16C14.2119 18.16 18.8979 13.724 19.1629 8.12599L8.49894 18.16ZM0.814938 14.938L1.17261 14.5886M0.814938 14.938C0.671603 14.7913 0.576858 14.604 0.543548 14.4016C0.510238 14.1992 0.539975 13.9915 0.628726 13.8065C0.717478 13.6216 0.860951 13.4684 1.03969 13.3678C1.21843 13.2672 1.4238 13.224 1.62794 13.244L0.814938 14.938ZM1.17261 14.5886C1.10094 14.5152 1.05357 14.4216 1.03691 14.3204C1.02026 14.2192 1.03512 14.1153 1.0795 14.0229C1.12388 13.9304 1.19561 13.8538 1.28498 13.8035C1.37436 13.7532 1.47704 13.7316 1.57911 13.7416L1.5796 13.7416C2.67786 13.8483 3.39508 13.8301 3.95997 13.6891L3.95998 13.6892L3.96777 13.6871L4.04277 13.6671L4.99315 13.4137L4.22833 12.7952C4.07833 12.6739 3.93714 12.5482 3.80626 12.4182M1.17261 14.5886L3.80626 12.4182M3.80626 12.4182C3.31533 11.93 2.91875 11.3348 2.82707 10.6854L3.80626 12.4182Z" fill="#26CE8D" stroke="#26CE8D"/>
</svg>
